<svg xmlns="http://www.w3.org/2000/svg" height="800" width="1200" viewBox="-28.9314 -38.82475 250.7388 232.9485"><path fill="#fff" d="M187.013 114.453c-.617 1.173-1.79 2.9-3.27 2.653a5.883 5.883 0 00.493-.987 3.892 3.892 0 01-.555.247 4.459 4.459 0 01-1.543.617 4.038 4.038 0 01-4.072 1.234 3.254 3.254 0 001.11-1.543 4.67 4.67 0 01-1.11-.555 3.775 3.775 0 01-1.48.494 4.086 4.086 0 01-4.567 1.542 4.825 4.825 0 001.173-2.468 11.843 11.843 0 01-.926-.864 12.184 12.184 0 01-2.53.247 5.787 5.787 0 01-5.059 1.913 5.065 5.065 0 001.42-2.345 6.834 6.834 0 01-2.777-1.666 70.66 70.66 0 01-96.129 20.361 57.524 57.524 0 01-.987 11.106 5.708 5.708 0 01-.987.68 7.412 7.412 0 01-1.913 3.084 8.606 8.606 0 00-.062-1.666l-.925 1.543-1.049.308a7.297 7.297 0 01-2.838 2.468 5.277 5.277 0 00.308-2.283l-1.419 1.05a19.32 19.32 0 01-1.357-.062 5.008 5.008 0 01-2.838 1.604 5.881 5.881 0 00.493-2.16 2.828 2.828 0 01-1.357-.925l-.062-1.851-.123-.062a5.378 5.378 0 01-2.962 1.172 4.843 4.843 0 001.11-2.53 2.675 2.675 0 01-.863-1.727 11.95 11.95 0 004.134-9.132 27.56 27.56 0 011.666-10.057 68.747 68.747 0 01-5.677-6.293 88.886 88.886 0 00-11.106 11.291 10.253 10.253 0 01-8.33.37 89.176 89.176 0 00-2.467 16.536 8.316 8.316 0 01-4.504 2.036 5.408 5.408 0 01-3.209 2.715 3.174 3.174 0 00.617-1.666 5.002 5.002 0 01-2.591.432 4.77 4.77 0 01-3.27 1.419 5.036 5.036 0 001.11-2.098l-1.11-.617-.309.37a5.034 5.034 0 01-2.468-.617 5.338 5.338 0 01-3.455.74 7.457 7.457 0 001.543-2.406 5.447 5.447 0 01-1.05-2.16l.494-.555-.802-1.11a4.788 4.788 0 01-3.517-.247 5.08 5.08 0 002.715-1.913 8.27 8.27 0 010-3.702c10.18-8.761 5.923-19.805 11.106-26.592 3.332-.494 4.196-1.481 4.196-1.481-.617-2.591 1.419-5.923 1.419-5.923a19.292 19.292 0 01-3.887.493c-7.343 0-12.155-5.06-12.155-11.97 0-15.424 20.237-19.126 25.729-19.805a70.575 70.575 0 01141.108 2.468 72.107 72.107 0 01-2.777 19.806 37.585 37.585 0 009.934 7.218s7.404 1.728 7.404 8.268a6.398 6.398 0 01-2.838 5.553zm-3.394-16.659a38.708 38.708 0 01-7.774-5.368 73.595 73.595 0 10-144.563-23.94C19.99 70.277 5.492 76.879 5.492 90.7c0 10.55 7.897 15.178 14.622 15.178l-.062.555-2.653.494c-6.91 7.897-2.344 20.237-12.34 27.765a12.675 12.675 0 00-.432 4.257A15.576 15.576 0 010 141.478c.74 2.344 5.491 3.825 6.232 3.887a4.687 4.687 0 00.246.679 7.46 7.46 0 01-1.974 3.578c.987 1.481 5.676 1.728 6.849 1.42a6.167 6.167 0 01-.926 2.344s4.072.802 6.787-.926a5.477 5.477 0 01-.123 1.913 14.173 14.173 0 007.836-3.949s5.306-1.295 5.676-4.442c.555-5.306.864-9.378 1.604-13.142a14.47 14.47 0 008.021-1.604 84.223 84.223 0 018.947-9.44c.802.925 1.604 1.789 2.406 2.653-2.283 7.465.926 12.648-5.43 17.276a10.978 10.978 0 00.618 3.578 9.727 9.727 0 01-1.666 3.517s1.295 1.48 4.936 1.358a11.553 11.553 0 01-.617 3.331 9.954 9.954 0 005.861-.308 7.182 7.182 0 01-.555 2.098s4.257-.802 6.725-2.962a6.005 6.005 0 01-.062 1.913c2.9-1.975 5.677-4.628 6.232-7.096.062-.123 1.234-.925 1.296-.987a50.887 50.887 0 001.049-7.774 73.315 73.315 0 0092.056-18.819 11.073 11.073 0 006.232-.493 18.81 18.81 0 01-1.728 1.234s5.677 2.22 8.823 0a3.522 3.522 0 01-.555 1.11s5.244 1.296 7.96-1.542a4.306 4.306 0 01-.371 1.049s5.183.061 6.91-4.504a9.283 9.283 0 003.58-7.528c-.001-8.761-9.256-11.106-9.256-11.106z"/><path fill="#fff" d="M98.35 127.657c-.74-.062-.987.247-1.05.987l-.616 5.06c-.062.74.061 1.11.74 1.234.74.061.987-.247 1.05-.988l.616-5.12c.123-.68-.062-1.111-.74-1.173zm10.057.247c-.679.062-.864.432-.802 1.234l.308 5.06c.062.74.309 1.11 1.05 1.048.678-.062.863-.432.801-1.172l-.308-5.121c-.062-.74-.309-1.11-1.05-1.05zM21.965 89.958c-.185-.802 3.332-5.12 9.934-5.8a13.362 13.362 0 00.247 1.543c-4.751 2.838-9.317 4.75-10.18 4.257zm11.415-8.884c-6.54 0-14.5 4.442-14.5 9.563 0 1.604 1.11 2.283 2.962 2.283 3.64 0 8.638-2.53 13.574-5.676a98.926 98.926 0 01-.926-6.17z"/><path fill="#fff" d="M139.01 26.716l-3.64 2.283 2.591 1.85zm12.587 89.218l-7.713-6.54 1.173-1.296 6.478 5.553 1.79-2.098 1.172.987zm-6.355 6.108l-6.664-7.527 1.296-1.172 5.676 6.416 2.036-1.85.988 1.172zm-5.615 4.196l-1.48-1.728-1.605.988.926 2.036-1.42.863-3.825-9.44 1.79-1.172 7.033 7.527zm-10.489 5.553l-2.53 1.049-3.887-9.255 2.345-1.05c1.727-.678 2.9-.122 3.517 1.482a1.951 1.951 0 01-.309 2.344 2.382 2.382 0 012.221 1.666c.68 1.604.432 3.024-1.357 3.764zm-10.736 3.455l-1.974-8.33-1.604.37-.37-1.418 4.935-1.173.37 1.481-1.665.37 1.974 8.33zm-9.378 1.48a2.344 2.344 0 01-2.777-2.344l-.37-5.182a2.433 2.433 0 012.468-2.777 2.408 2.408 0 012.838 2.406l.309 5.121a2.376 2.376 0 01-2.468 2.777zm-8.206-7.712l-.617 5.183a2.642 2.642 0 01-5.245-.617l.617-5.183a2.39 2.39 0 012.962-2.22 2.342 2.342 0 012.283 2.837zm-9.132-2.344l-2.961-.926-.74 2.53 2.22.679-.37 1.419-2.283-.679-1.234 4.257-1.666-.493 2.839-9.625 4.627 1.419zm67.438-18.51c-1.049-.679-2.036-1.975-1.542-4.504 0 0-9.749-3.024-15.117-9.07 0 0-10.674.432-15.61-2.962a40.86 40.86 0 01-11.723 8.391 13.22 13.22 0 00-9.255-3.393c-5.8 0-7.095 2.468-13.574 3.085l1.357 2.406a19.72 19.72 0 009.194-2.715s9.378-.431 10.92 6.294a6.245 6.245 0 01-.493 2.098 6.359 6.359 0 01-.247 5.368 3.883 3.883 0 00-1.295-2.654 5.009 5.009 0 01-.556.617c0 .247.062.556.062.864a5.213 5.213 0 01-.432.987 4.823 4.823 0 01-.062 4.875 4.936 4.936 0 00-1.604-2.653 1.878 1.878 0 01-.493.493v.185a4.697 4.697 0 01-.74 1.42 5.135 5.135 0 010 4.318 5.92 5.92 0 00-1.79-2.53c-.247.124-.494.31-.802.433a3.187 3.187 0 01-1.234 1.542 3.78 3.78 0 01-.802 3.764 3.979 3.979 0 00-1.234-2.653 15.507 15.507 0 01-3.209.74l-3.393-1.357s-8.083 2.22-11.785-1.234a38.934 38.934 0 01-10.304 11.167c-1.234 0-2.283 0-3.147-.061a67.447 67.447 0 0089.527-19.127 6.143 6.143 0 01-.617-4.134z"/><path fill="#fff" d="M74.78 37.205c-4.072 3.455-8.946 2.9-11.846-.432-3.455-4.01-3.085-8.7 1.049-12.217 3.27-2.776 6.17-2.406 6.17-2.406l-.124 4.01a4.471 4.471 0 00-3.887 1.296c-2.591 2.16-1.604 5.06-.308 6.602a4.375 4.375 0 006.478.555 6.376 6.376 0 001.851-2.468l-1.419-1.604-2.098 1.851-2.344-2.776 4.936-4.196 5.491 6.417a14.75 14.75 0 01-3.949 5.368zm-9.81 10.304l-12.895-9.255 2.22-3.085 12.896 9.193zm-4.196 8.02l-11.29-5.182-1.852 4.01-3.146-1.419L49.73 41.4l3.147 1.481-1.851 4.01 11.29 5.122zm24.804-42.572l1.357 3.27-6.54 2.715.926 2.22 6.17-2.59 1.419 3.331-6.17 2.592.987 2.53 6.91-2.9 1.42 3.331-10.49 4.381-6.046-14.685zm12.895-2.468c3.887-.432 6.17 1.049 6.479 4.257a4.208 4.208 0 01-2.715 4.69l4.627 6.17-4.504.493-3.887-5.8-1.296.124.68 6.17-3.826.431-1.728-15.795zm9.008 6.663l5.8.617-.308 3.024-5.8-.556zm8.391 1.79c1.605-4.628 5.862-6.972 10.86-5.183a6.743 6.743 0 014.319 4.134l-3.517 1.296a3.28 3.28 0 00-2.345-2.16c-2.468-.864-4.627.679-5.553 3.208a4.33 4.33 0 002.468 5.739 3.603 3.603 0 003.517-.68l2.221 3.27a6.89 6.89 0 01-6.725.865c-4.257-1.543-6.849-5.862-5.245-10.49zm27.642 4.504l-3.887 16.844-3.455-2.53.864-3.455-4.566-3.394-2.962 1.913-3.393-2.53 14.931-8.7zm6.047 4.936l8.02 9.748-2.652 2.16-2.777-3.394-9.625 7.898-2.406-2.962 9.563-7.897-2.776-3.394zm12.525 17.523a6.793 6.793 0 01.617 5.306l-3.764-1.05a3.203 3.203 0 00-.062-2.714c-.37-.74-1.234-1.728-2.16-1.234-.863.432-.74 1.42-.493 3.023.37 2.098.864 4.751-2.16 6.17-2.837 1.42-5.799.124-7.465-3.208a7.513 7.513 0 01-.494-5.861l3.888 1.11a3.953 3.953 0 00-.124 3.332c.432.802 1.296 1.79 2.221 1.357.864-.432.74-1.542.556-3.27-.309-2.098-.74-4.75 2.036-6.108 3.27-1.604 6.17.493 7.404 3.147zm-80.272-6.17s10.798-6.973 23.94-5.121a11.095 11.095 0 00-.926-1.851c6.294.308 10.921 4.133 13.142 6.355 2.468-.247 6.109 1.295 8.33 2.283 0 0 9.07-2.962 10.427-1.05 1.296 1.79.617 9.194-2.345 12.464l.617.432a23.298 23.298 0 013.702.494l-2.714.123c4.442 3.085 10.797 9.07 14.993 19.62 10.55 3.332 13.142 10.12 18.942 16.968a69.354 69.354 0 002.16-16.906 67.319 67.319 0 00-134.63-1.049c1.974.432 4.072 1.42 4.072 3.764 0 2.9-1.604 4.01-3.764 4.504.185 1.48.432 3.023.68 4.442 4.01-2.776 7.773-5.738 10.488-7.897 7.034-9.564 12.895-24.68 29.925-35.724.185-.803.185-2.037 2.961-1.851zm-24.063 82.06a6.122 6.122 0 002.036-1.419 23.691 23.691 0 011.604-11.167 70.694 70.694 0 00-9.378 6.231 62.748 62.748 0 005.738 6.356zm69.227 5.985l-.493.247 1.172 2.838.679-.246c.864-.37.987-.988.555-1.913-.432-.987-.987-1.296-1.913-.926zm.062-2.961c-.308-.802-.864-1.11-1.542-.864l-.617.247 1.049 2.53.555-.247a1.167 1.167 0 00.555-1.666z"/><path fill="#fff" d="M92.612 48.31a6.654 6.654 0 003.331 2.16 12.384 12.384 0 011.975-1.049c.802-.185 1.172-1.357.185-1.357-.802 0-1.11.679-.987.987l-1.851-.864zm41.03-5.676a18.136 18.136 0 00-6.787 5.985c3.394-2.591 4.566-2.468 4.566-2.468a24.775 24.775 0 01-.062 4.566c2.962-3.023 2.283-8.083 2.283-8.083zm-10.18 5.677l-2.592-.124-1.85.864a1.003 1.003 0 00-1.05-.925c-.802 0-.617.987.185 1.295a9.795 9.795 0 011.913 1.05 5.907 5.907 0 003.394-2.16zm13.697 75.089l-2.9-3.332 1.728 4.01zM98.535 16.967c1.604-.185 2.591-.555 2.468-1.789-.124-1.48-1.604-1.42-2.53-1.296l-2.036.185.37 3.085z"/><path fill="#fff" d="M126.793 67.931a18.195 18.195 0 01.556 2.962 24.052 24.052 0 00-4.134-.432 31.22 31.22 0 01.123 5.738 21.06 21.06 0 00-2.344-7.65 12.23 12.23 0 013.331-.062 14.324 14.324 0 00-.678-3.394 13.383 13.383 0 012.961-.123 19.133 19.133 0 00-1.727-7.404c4.134 3.27 6.231 10.674 6.231 10.674a19.245 19.245 0 00-4.319-.309zm1.728-11.66a19.3 19.3 0 013.393-.371c-.246-.494-.678-1.049-1.048-1.666a47.169 47.169 0 00-7.528 1.172 7.926 7.926 0 01-1.419 4.936 5.351 5.351 0 011.357 2.715s-6.108 3.332-3.393 9.625c0 0-2.406-.432-3.085-.432a38.286 38.286 0 00.185 4.875c.247 1.172 1.851 8.638-3.702 10.119-.864.246-1.357-.186-1.79-.247a10.156 10.156 0 00-6.971 0 2.461 2.461 0 01-1.728.247c-5.615-1.481-4.01-9.872-3.764-11.106-1.604-.864-5.923.308-5.923.308a43.342 43.342 0 011.05-6.108c-3.271.678-5.369 1.234-5.369 1.234a534.512 534.512 0 011.173-4.628c-3.826.987-5.183 2.221-5.183 2.221a21.215 21.215 0 015.43-9.316 5.458 5.458 0 01.616-4.813 53.586 53.586 0 00-5.614-.74c-.432.617-.802 1.234-1.111 1.666a9.983 9.983 0 014.134.37s-5.738 4.812-6.355 16.535a14.382 14.382 0 015.06-2.159s-1.111 3.085-.803 4.196a32.725 32.725 0 015.862-1.728s-1.358 3.764-.556 5.923a15.607 15.607 0 015.677-.802s-1.42 8.7 2.344 10.057a21.76 21.76 0 008.515 1.79 20.423 20.423 0 008.514-1.79c3.95-1.79 2.345-10.057 2.345-10.057a12.437 12.437 0 016.355.802c.802-2.221-.555-5.923-.555-5.923a25.517 25.517 0 014.75.864 14.53 14.53 0 00-.74-2.406 13.37 13.37 0 015.985 1.419c.432-6.973-6.108-16.783-6.108-16.783zm-14.623-9.38l-2.16-1.11 5.615-1.419zm5.8-3.208c-2.53-1.048-10.242 1.234-10.242 3.27l4.38.926 6.294-2.715 4.997 3.209c-.74-2.283-4.38-4.258-5.43-4.69zm-17.523 3.209l-3.455-2.53 5.676 1.42zm-5.8-3.209c-1.049.432-4.627 2.345-5.43 4.69l5.06-3.209 6.232 2.715 4.38-.925c0-2.037-7.774-4.258-10.242-3.27z"/><path fill="#fff" d="M139.01 91.254a23.825 23.825 0 003.764.309 10.188 10.188 0 011.789-3.764 41.167 41.167 0 01-5.862-.432 14.526 14.526 0 00.309 3.887zm-3.825-4.627a11.098 11.098 0 01-3.64-1.481 26.115 26.115 0 01-1.543 2.591 23.687 23.687 0 004.75 2.406 14.063 14.063 0 01.433-3.516zm48.496 17.522c.37 1.173-.494 1.666-3.085 1.666-5.306 0-13.39-3.393-16.412-6.602a50.988 50.988 0 01-13.39-6.972 10.246 10.246 0 00-.678 1.851c-.062-.864-.062-1.666-.062-2.406a22.648 22.648 0 01-3.702-3.579 13.526 13.526 0 00-.308 5.121c2.9 2.592 9.008 7.281 15.24 8.268 0 0-1.543 3.517 4.319 5.738a20.547 20.547 0 001.974 3.456 5.705 5.705 0 005.183.863 3.769 3.769 0 00-.247-5.06s3.085 1.543 1.913 5.492c0 0 .987 1.851 3.949.926 0 0 1.357-3.332-.124-5.553a5.199 5.199 0 011.604 5.861 3.46 3.46 0 003.147.185s1.851-2.961.309-5.12a4.108 4.108 0 011.419 3.701c2.344-1.974 2.53-5.183-1.05-7.836zM11.6 136.172a14.748 14.748 0 01-1.42 1.357 5.945 5.945 0 00.926 4.072 14.087 14.087 0 00.987-1.172 4.519 4.519 0 01-.74 3.393 3.814 3.814 0 002.9 1.975 11.631 11.631 0 002.53-3.209 9.811 9.811 0 01-.741 3.209 4.305 4.305 0 003.517.925 6.635 6.635 0 001.85-2.9 5.28 5.28 0 01.248 2.036 5.91 5.91 0 002.53-1.11 14.901 14.901 0 00.801-3.455 14.256 14.256 0 01-13.388-5.121zm27.641-18.634a.06.06 0 01.062.062 75.687 75.687 0 0110.612-11.661 14.322 14.322 0 01-1.85-2.592 49.362 49.362 0 00-8.824 14.191zm11.168-16.782a20.22 20.22 0 002.468 2.591 80.408 80.408 0 019.193-6.725 13.683 13.683 0 00-2.16-4.01 92.277 92.277 0 00-9.501 8.144zM110.38 106a7.826 7.826 0 00-7.219-4.01c-.493 8.761-12.648 12.957-12.648 12.957s-5.677.617-7.096-3.517c.309 3.393 2.345 7.712 11.6 6.478a12.56 12.56 0 012.838 1.975 5 5 0 004.32-2.653 8.356 8.356 0 00-3.086-3.517 8.516 8.516 0 015.06 2.9 4.989 4.989 0 001.295-2.407s.556-2.036-3.023-4.442a9.053 9.053 0 014.566 2.53 10.6 10.6 0 001.542-2.16 7.027 7.027 0 00-3.332-4.38 11.615 11.615 0 014.32 2.344 3.671 3.671 0 00.863-2.098zm-6.787-46.213s-1.296 1.172.309 2.715l1.419-.617.925.493.926-.493.864.493.925-.493.926.493.863-.493 1.42.617c1.604-1.604.308-2.715.308-2.715l-1.851.987h-5.121zm4.443-8.144l4.812-1.358h-9.687zm-2.9 32.392a7.85 7.85 0 005.8 0l1.974.555a6.15 6.15 0 001.913-6.355 9.8 9.8 0 01-3.826 4.751l-1.049-.74-1.049.74-.802-.74-.802.74-1.049-.74-1.11.74a10.176 10.176 0 01-3.826-4.75 6.106 6.106 0 001.975 6.354zm-3.64-15.116c-2.345-3.95.184-8.762.184-8.762a5.194 5.194 0 00-3.64.987c-.247 6.232 3.455 7.775 3.455 7.775zm16.473-7.775a4.982 4.982 0 00-3.578-.987s2.468 4.813.185 8.762c-.062 0 3.64-1.543 3.393-7.775zm-20.546-1.727l8.391-1.543 1.173-2.653c-1.358-1.85-6.972-4.134-6.972-4.134a18.492 18.492 0 00-2.53 1.11 35.285 35.285 0 014.812 1.79l-6.108-.617h-.185a3.386 3.386 0 00-.74 1.296c4.75.987 8.206 2.098 8.206 2.098l-7.898.185a11.101 11.101 0 001.851 2.468zm22.706-6.17a.471.471 0 01-.309.123l-6.108.617a36.726 36.726 0 014.998-1.79 17.021 17.021 0 00-2.468-1.11s-5.677 2.283-6.972 4.134l1.11 2.653 8.391 1.543a9.456 9.456 0 001.851-2.468l-8.144-.185a84.327 84.327 0 018.391-2.16 2.941 2.941 0 00-.74-1.357z"/><path fill="#ffb819" d="M103.41 39.981a4.766 4.766 0 00-1.173-1.049s4.874-.061 7.527 1.79c.987-.247 2.283-.556 3.579-.864a12.558 12.558 0 00-4.196-2.653l.37 1.357c-7.465-3.393-17.214-.925-23.199 1.913 1.851.432 3.394.925 3.394.925 4.812-2.344 7.774-3.023 13.697-1.419zM19.496 94.71a9.565 9.565 0 01-4.75 3.579 9.091 9.091 0 006.108 1.666c.678-1.05 1.604-2.653 1.357-3.64a4.266 4.266 0 011.48 3.208 21.153 21.153 0 003.518-1.049 5.135 5.135 0 00-1.358-4.442 12.856 12.856 0 01-6.355.678zm-2.344-1.357a3.901 3.901 0 01-.74-2.838 5.84 5.84 0 01-5.122-2.592 11.018 11.018 0 00.494 6.849 6.441 6.441 0 005.368-1.42zm.37-6.294s1.419-3.023 5.861-5.553a6.181 6.181 0 01-1.419-4.997 18.756 18.756 0 00-3.64 2.098 5.652 5.652 0 001.11 3.825s-1.727.494-3.393-2.036a23.473 23.473 0 00-2.715 3.023 6.06 6.06 0 004.196 3.64zm14.993-8.082a6.255 6.255 0 011.049-4.751 22.907 22.907 0 00-2.962.432 13.3 13.3 0 01.987-1.173 48.436 48.436 0 00-4.936 1.173 8.771 8.771 0 00.185 5.306 28.786 28.786 0 015.677-.987zM28.814 92.92a5.843 5.843 0 011.542 3.64c.556-.432 1.234-.802 1.913-1.234a4.492 4.492 0 00-1.604-3.27c-.617.309-1.234.617-1.851.864zm12.031-5.43a2.296 2.296 0 00-.555-1.234 80.352 80.352 0 01-5.183 3.394 3.85 3.85 0 011.296 2.53c1.234-1.173 2.715-2.777 4.442-4.69zm78.853-43.807c1.049.432 4.627 2.345 5.368 4.69l-1.604-.062a6.314 6.314 0 01-3.456 2.16c.432.308.864.678 1.296 1.048a35.296 35.296 0 017.096-.74c-.864-1.234-1.543-2.098-1.543-2.098a18.135 18.135 0 016.787-5.985c-3.085.309-8.576 3.27-8.576 3.27a17.828 17.828 0 00-5.121-3.517c-4.504-1.419-11.908 1.605-11.908 1.605s-7.404-3.024-11.97-1.605a22.486 22.486 0 00-5.862 4.258l-.308-1.666a18.728 18.728 0 00-6.232-1.913 18.733 18.733 0 015.491 5.615s-.678.864-1.542 2.036a32.525 32.525 0 016.725.74 14.354 14.354 0 011.604-1.049 5.942 5.942 0 01-3.331-2.16l-1.666.124c.802-2.283 4.38-4.319 5.43-4.75 2.467-.988 10.18 1.233 10.18 3.331l-2.407 1.728h7.775l-2.468-1.728c0-2.098 7.712-4.319 10.242-3.332zm2.53 8.885a4.898 4.898 0 01.802 1.604 66.667 66.667 0 017.157-.925 41.53 41.53 0 01-1.42-2.036 65.464 65.464 0 00-6.54 1.357zm-29.123-.185a51.699 51.699 0 00-5.861-1.172c-.432.678-.926 1.357-1.42 2.036a58.28 58.28 0 015.739.679c.493-.556 1.049-1.05 1.542-1.543z"/><path fill="#ffb819" d="M173.13 100.139a7.756 7.756 0 012.777-.494c-6.602-4.134-8.021-7.712-10.736-10.859-3.764.123-7.59 3.825-7.59 3.825a8.475 8.475 0 015.492-6.355 25.746 25.746 0 00-2.221-2.283c-5.923.247-8.947 5.368-10.12 8.268a52.636 52.636 0 0013.452 6.972c3.023 3.209 11.044 6.602 16.35 6.602 2.591 0 3.455-.493 3.147-1.666-2.098-1.604-5.492-3.023-10.551-4.01zm-16.597-19.62a22.707 22.707 0 00-4.936-2.716c-4.381 1.234-7.22 5.985-7.22 5.985.433-4.874 2.592-7.157 4.135-8.206a46.998 46.998 0 00-4.69-8.7c-.308 6.54-2.653 7.836-2.653 7.836 1.05-5.43-.678-10.674-1.665-13.08a28.096 28.096 0 00-3.826-3.27 12.04 12.04 0 00-2.591-.062 34.172 34.172 0 015.244 20.361 35 35 0 00-6.478-3.578s.74 2.406.925 3.578a12.284 12.284 0 00-3.455-1.48 14.344 14.344 0 01.062 6.17 23.897 23.897 0 00-5.121-1.296c-.432 4.195-3.085 8.082-5.738 10.859 6.663-5.553 7.897-8.33 7.897-8.33a9.33 9.33 0 01-.432 3.517 50.179 50.179 0 007.22-7.095 25.884 25.884 0 01-1.605 4.01 9.767 9.767 0 003.64 1.543c.864-3.455 3.024-6.787 7.096-7.713a12.728 12.728 0 00-3.579 8.392 40.31 40.31 0 005.862.431 8.486 8.486 0 012.9-2.406 9.53 9.53 0 00-1.173 2.715 19.83 19.83 0 003.702 3.64 13.525 13.525 0 016.479-11.106zm-63.12 23.939a13.831 13.831 0 00-4.133 1.85 13.96 13.96 0 011.296-2.22 62.532 62.532 0 00-4.381-9.194c-5.121-.617-9.255 4.628-9.255 4.628a10.183 10.183 0 017.404-7.898c-1.11-1.974-1.913-3.332-1.913-3.332a14.983 14.983 0 00.864-2.961c-6.602-3.517-14.376 3.085-14.376 3.085 3.393-7.528 11.168-7.836 14.623-7.59-.124-2.097-.617-5.059-.617-5.059a34.594 34.594 0 00-5.368 2.962 36.985 36.985 0 012.406-14.068c-3.455-1.049-7.96.309-7.96.309 4.32-2.468 7.343-3.147 9.194-3.27a23.606 23.606 0 012.036-3.517 35.998 35.998 0 00-4.75.185 16.57 16.57 0 013.208-4.504c-2.468-.124-4.32-.185-4.32-.185A21.606 21.606 0 0182 53.123c-1.85-1.789-2.961-5.244-3.208-8.206-.987.74-2.036 1.543-3.085 2.345 1.974 2.591 1.357 4.257 1.357 4.257a4.809 4.809 0 00-3.208-2.591c-.74.617-1.481 1.296-2.221 1.974 5.12 3.332 2.653 8.762 2.653 8.762a6.956 6.956 0 00-5.615-5.677 101.26 101.26 0 00-8.33 10.18 52.452 52.452 0 00-2.59 12.65 13.508 13.508 0 01-.988-6.788 133.122 133.122 0 01-2.962 4.69 23.198 23.198 0 001.975 9.44 9.095 9.095 0 01-4.504-5.553c-.74 1.172-1.543 2.282-2.407 3.516 1.543 8.33 5.368 12.896 5.368 12.896a17.954 17.954 0 01-8.082-9.317 64.2 64.2 0 01-6.726 7.342c.679 5.06 5.862 8.515 4.443 12.587-.802-3.949-6.17-5.368-8.021-9.687-.494.432-3.517 2.221-5.121 3.579a7.184 7.184 0 014.257 7.095s-2.468-4.442-7.28-3.948a10.882 10.882 0 00-1.913 8.144s-3.826 1.542-4.751 1.049a24.975 24.975 0 00-1.975 4.812 16.254 16.254 0 003.394 6.417 6.744 6.744 0 01-4.258-2.838q-.185.833-.37 1.851a13.838 13.838 0 005.183 4.75c-3.147.865-4.998-.06-5.985-1.11a26.346 26.346 0 01-5.43 10.366 14.342 14.342 0 0013.328 5.121c.247-1.79.308-3.579.617-4.998-5.553-.308-6.417-5.8-6.417-5.8 3.023 2.9 5.676 2.9 7.034 2.715a49.955 49.955 0 012.036-7.219 10.26 10.26 0 01-2.653-6.231 13.213 13.213 0 008.514 6.231c.247-.37.432-.802.679-1.234a10.034 10.034 0 01-4.504-6.725 12.802 12.802 0 005.8 4.442c.247-.37.493-.802.74-1.172-4.874-5.06-2.591-11.353-7.897-14.006 6.972.802 6.972 8.083 10.365 10.242a49.362 49.362 0 018.823-14.19 16.438 16.438 0 01-1.666-9.81 22.58 22.58 0 003.95 7.218 92.275 92.275 0 019.5-8.144c-1.48-1.79-2.776-1.666-2.776-1.666a45.372 45.372 0 015.985-21.102 17.444 17.444 0 00-1.85.494 23.024 23.024 0 018.884-11.908 22.292 22.292 0 00-5.244 8.453 27.015 27.015 0 013.455-1.05 34.358 34.358 0 00-4.936 9.996c2.098-1.542 8.453-5.738 12.772-3.64 0 0-8.7 1.48-14.747 11.353-.246 1.357-.493 2.468-.555 3.393 1.296-2.16 5.553-7.959 11.476-7.157 0 0-6.972 1.11-9.502 10.613 2.098 2.406 2.098 5.306 4.073 7.712.493-1.296 3.085-6.54 9.07-6.355a11.342 11.342 0 00-5.8 9.995 20.222 20.222 0 005.676 5.368 7.109 7.109 0 015.553-4.874s-2.838 2.16-2.406 6.91c1.79 1.05 3.208 1.728 3.64 1.975.309-1.11.74-2.283 1.234-3.579a13.366 13.366 0 00-.37 3.887c1.42 4.072 7.095 3.517 7.095 3.517s12.155-4.196 12.649-12.957c-.062.062-3.64 2.838-9.81 2.53z"/><path fill="#a93439" d="M111.862 64.723c-3.455-1.296-3.825 4.442-3.825 6.108-.062-1.666-.37-7.404-3.887-6.108 0 0 2.22 4.442.493 7.404-1.727 2.838-.247 7.219.802 7.59a8.042 8.042 0 002.592.246 7.834 7.834 0 002.53-.247c1.048-.37 2.529-4.75.863-7.589-1.79-2.962.432-7.404.432-7.404z"/><path d="M10.18 137.529a14.748 14.748 0 001.42-1.357 26.346 26.346 0 005.43-10.366c1.048 1.049 2.837 1.974 5.984 1.11a13.245 13.245 0 01-5.183-4.75l.37-1.851a6.311 6.311 0 004.258 2.838 16.254 16.254 0 01-3.394-6.417 24.975 24.975 0 011.975-4.813c.925.556 4.75-.987 4.75-.987a11.111 11.111 0 011.913-8.206c4.813-.432 7.28 4.01 7.28 4.01a7.303 7.303 0 00-4.256-7.156c1.604-1.42 4.627-3.147 5.12-3.58 1.852 4.32 7.22 5.8 8.022 9.688 1.419-4.134-3.764-7.528-4.443-12.587a64.202 64.202 0 006.726-7.342 17.73 17.73 0 008.082 9.316s-3.825-4.565-5.368-12.895q1.296-1.758 2.407-3.517a8.94 8.94 0 004.504 5.553 23.087 23.087 0 01-1.975-9.378 225.3 225.3 0 002.962-4.751 13.427 13.427 0 00.987 6.787 52.452 52.452 0 012.592-12.649 108.743 108.743 0 018.329-10.18 7.055 7.055 0 015.615 5.676s2.53-5.43-2.653-8.761c.74-.679 1.48-1.357 2.22-1.974a4.809 4.809 0 013.21 2.591s.616-1.604-1.358-4.196a45.466 45.466 0 013.085-2.344c.247 2.9 1.357 6.355 3.208 8.144a26.4 26.4 0 00-4.627.555s1.789.062 4.319.247a14.84 14.84 0 00-3.209 4.504 32.209 32.209 0 014.751-.246 28.724 28.724 0 00-2.036 3.516c-1.85.124-4.874.864-9.193 3.332 0 0 4.504-1.419 7.96-.37a36.985 36.985 0 00-2.407 14.068 35.08 35.08 0 015.368-2.9 40.848 40.848 0 01.617 4.997c-3.456-.185-11.291.124-14.623 7.59 0 0 7.774-6.54 14.376-3.085a16.943 16.943 0 01-.864 3.023s.802 1.357 1.913 3.27a10.27 10.27 0 00-7.404 7.898s4.134-5.183 9.255-4.628a62.532 62.532 0 014.38 9.193 13.96 13.96 0 00-1.295 2.222 13.083 13.083 0 014.134-1.79 16.47 16.47 0 009.748-2.468 7.932 7.932 0 017.22 4.01 4.4 4.4 0 01-.865 2.099 10.654 10.654 0 00-4.319-2.345 7.027 7.027 0 013.332 4.38 12.62 12.62 0 01-1.542 2.16 8.528 8.528 0 00-4.566-2.53c3.578 2.407 3.023 4.443 3.023 4.443a4.99 4.99 0 01-1.296 2.406 8.938 8.938 0 00-5.059-2.9 7.994 7.994 0 013.085 3.455 4.972 4.972 0 01-4.319 2.715 14.101 14.101 0 00-2.838-1.974c-9.255 1.234-11.353-3.085-11.6-6.479a12.211 12.211 0 01.432-3.887 28.522 28.522 0 00-1.296 3.579 37.867 37.867 0 01-3.64-1.975 7.86 7.86 0 012.468-6.91 7.005 7.005 0 00-5.553 4.874 20.222 20.222 0 01-5.676-5.368 11.07 11.07 0 015.738-9.933c-6.047-.247-8.515 4.936-9.07 6.293-1.913-2.406-1.913-5.306-4.072-7.712 2.53-9.502 9.563-10.613 9.563-10.613-5.985-.864-10.18 4.998-11.538 7.157.124-.863.309-2.036.556-3.393 6.046-9.872 14.808-11.353 14.808-11.353-4.32-2.098-10.736 2.16-12.834 3.64a35.614 35.614 0 014.936-9.933 27.428 27.428 0 00-3.455.987 21.913 21.913 0 015.306-8.391 22.701 22.701 0 00-8.885 11.846 15.38 15.38 0 011.79-.493 46.215 46.215 0 00-5.985 21.1 3.77 3.77 0 012.776 1.667 10.763 10.763 0 012.16 4.01 86.986 86.986 0 00-9.132 6.664 19.557 19.557 0 01-2.53-2.53 22.58 22.58 0 01-3.948-7.219 16.41 16.41 0 001.666 9.81 17.676 17.676 0 001.789 2.592 86.187 86.187 0 00-10.55 11.661c0-.061-.063-.061-.124-.123-3.332-2.16-3.394-9.44-10.304-10.18 5.244 2.59 3.023 8.946 7.897 14.005l-.74 1.11a12.636 12.636 0 01-5.8-4.38 9.776 9.776 0 004.504 6.726c-.246.431-.432.802-.678 1.234a13.811 13.811 0 01-8.577-6.294 10.584 10.584 0 002.715 6.294 52.183 52.183 0 00-2.098 7.157c-1.295.308-3.948.246-6.972-2.715 0 0 .864 5.491 6.417 5.8-.308 1.48-.37 3.27-.617 4.997a16.177 16.177 0 01-.74 3.517 6.823 6.823 0 01-2.592 1.05 6.315 6.315 0 00-.185-1.975 6.945 6.945 0 01-1.913 2.838 4.085 4.085 0 01-3.516-.926 9.433 9.433 0 00.74-3.146 10.464 10.464 0 01-2.53 3.208 4.016 4.016 0 01-2.9-1.974 4.611 4.611 0 00.74-3.455 14.082 14.082 0 01-.986 1.172 6.546 6.546 0 01-.803-4.134zm13.451-38.007a4.055 4.055 0 00-1.48-3.209c.308.988-.618 2.592-1.358 3.64a9.003 9.003 0 01-6.047-1.665 8.732 8.732 0 004.69-3.579 13.057 13.057 0 006.416-.678 4.894 4.894 0 011.296 4.442 21.15 21.15 0 01-3.517 1.049zM11.785 94.77a11.262 11.262 0 01-.494-6.91 5.84 5.84 0 005.121 2.59 3.828 3.828 0 00.74 2.84 6.303 6.303 0 01-5.367 1.48zm4.319-14.376c1.666 2.468 3.393 2.036 3.393 2.036a5.623 5.623 0 01-1.172-3.825 23.28 23.28 0 013.702-2.098 5.779 5.779 0 001.419 4.997c-4.504 2.53-5.923 5.553-5.923 5.553a5.884 5.884 0 01-4.134-3.578 15.208 15.208 0 012.715-3.085zm10.55-5.677a37.14 37.14 0 014.998-1.172 7.787 7.787 0 00-.987 1.172s1.357-.308 2.961-.493a6.003 6.003 0 00-1.048 4.75 22.032 22.032 0 00-5.677 1.111 8.59 8.59 0 01-.247-5.368zm13.574 11.538a1.663 1.663 0 01.556 1.234 57.855 57.855 0 01-4.443 4.69 3.983 3.983 0 00-1.295-2.53 56.446 56.446 0 005.182-3.394zm-7.959 9.07c-.679.432-1.296.802-1.913 1.234a6.22 6.22 0 00-1.542-3.64c.555-.309 1.234-.555 1.85-.926a4.766 4.766 0 011.605 3.332zM21.842 92.92c-1.851 0-2.962-.617-2.962-2.283 0-5.121 7.898-9.563 14.5-9.563h1.11c.247 2.097.556 4.133.926 6.17-4.936 3.146-9.872 5.676-13.574 5.676zm82.863-86.688a67.358 67.358 0 0167.314 67.314 66.12 66.12 0 01-2.16 16.906c-5.737-6.849-8.329-13.636-18.88-16.968-4.257-10.55-10.612-16.535-15.054-19.62l2.715-.124a21.512 21.512 0 00-3.702-.493l-.617-.432c2.961-3.208 3.64-10.674 2.406-12.463-1.357-1.913-10.489 1.048-10.489 1.048-2.221-.987-5.861-2.468-8.33-2.282-2.22-2.222-6.848-6.047-13.08-6.356a14.456 14.456 0 01.864 1.851c-13.08-1.85-23.878 5.122-23.878 5.122-2.838-.186-2.838 1.048-3.023 1.789C61.76 52.63 55.9 67.684 48.866 77.31c-2.776 2.098-6.478 5.06-10.489 7.897-.308-1.48-.493-2.961-.678-4.504 2.16-.432 3.763-1.604 3.763-4.504 0-2.344-2.16-3.332-4.072-3.702a67.341 67.341 0 0167.315-66.265zm71.202 93.413a7.756 7.756 0 00-2.777.494c5.06.987 8.453 2.406 10.55 4.01 3.58 2.653 3.394 5.862.926 7.898a4.007 4.007 0 00-1.419-3.702c1.543 2.16-.308 5.121-.308 5.121a3.576 3.576 0 01-3.085-.185 5.24 5.24 0 00-1.666-5.923c1.542 2.22.123 5.553.123 5.553-2.9.987-3.887-.926-3.887-.926 1.234-3.949-1.913-5.43-1.913-5.43a3.698 3.698 0 01.247 4.998 5.864 5.864 0 01-5.244-.802 25.623 25.623 0 01-1.913-3.517c-5.862-2.16-4.38-5.738-4.38-5.738-6.17-.925-12.217-5.614-15.179-8.206a13.904 13.904 0 01.309-5.183 9.34 9.34 0 011.11-2.714 8.485 8.485 0 00-2.9 2.406 9.28 9.28 0 00-1.727 3.764 25.278 25.278 0 01-3.826-.309 14.788 14.788 0 01-.308-3.949 12.47 12.47 0 013.578-8.33c-4.072.926-6.231 4.196-7.095 7.652a17.865 17.865 0 00-.494 3.516 20.139 20.139 0 01-4.689-2.406 57.186 57.186 0 001.543-2.591 24.418 24.418 0 001.542-4.01 53.43 53.43 0 01-7.157 7.033 8.196 8.196 0 00.37-3.455s-1.234 2.715-7.836 8.33c2.653-2.839 5.245-6.726 5.677-10.922a27.57 27.57 0 015.12 1.296 13.481 13.481 0 000-6.108 10.47 10.47 0 013.394 1.419c-.185-1.172-.925-3.579-.925-3.579a36.758 36.758 0 016.54 3.579 34.261 34.261 0 00-5.306-20.361 12.621 12.621 0 012.653.062 32.396 32.396 0 013.825 3.27c.926 2.406 2.653 7.712 1.666 13.142 0 0 2.345-1.358 2.653-7.898a49.804 49.804 0 014.628 8.7c-1.543 1.049-3.702 3.332-4.134 8.206 0 0 2.9-4.69 7.219-5.923a27.803 27.803 0 014.997 2.653 13.723 13.723 0 00-6.54 11.168c0 .802 0 1.542.062 2.406a10.244 10.244 0 01.679-1.851c1.172-2.838 4.195-8.021 10.118-8.206l2.222 2.221a8.482 8.482 0 00-5.492 6.417s3.764-3.702 7.528-3.887c2.9 3.146 4.319 6.663 10.92 10.797zM93.105 52.383a12.139 12.139 0 00-1.542 1.543 58.28 58.28 0 00-5.738-.68c.493-.678.987-1.357 1.419-2.035 1.666.247 3.825.678 5.861 1.172zm21.41 16.536c2.345-3.95-.185-8.762-.185-8.762a5.194 5.194 0 013.64.987c.247 6.232-3.455 7.775-3.455 7.775zm-13.265 9.316a10.176 10.176 0 003.825 4.751l1.11-.74.988.74.864-.74.802.74 1.049-.74 1.048.74a10.176 10.176 0 003.826-4.75 6.15 6.15 0 01-1.913 6.354l-1.974-.555a7.85 7.85 0 01-5.8 0l-1.974.555a6.196 6.196 0 01-1.851-6.355zm-3.209-17.09a5.194 5.194 0 013.64-.988s-2.53 4.813-.185 8.762c0 0-3.702-1.543-3.455-7.775zm5.121-10.86h9.687l-4.812 1.358zm8.947 12.217l-1.42-.617-.863.493-.926-.493-.863.493-.926-.493-.925.493-.864-.493-1.42.617c-1.665-1.604-.308-2.715-.308-2.715l1.851.987h5.121l1.851-.987s1.358 1.11-.308 2.715zm-7.898 2.221c3.455-1.296 3.826 4.442 3.826 6.108.061-1.666.37-7.404 3.887-6.108 0 0-2.283 4.442-.494 7.404 1.728 2.838.247 7.219-.802 7.59a8.292 8.292 0 01-2.591.246 8.547 8.547 0 01-2.592-.247c-1.049-.37-2.468-4.75-.802-7.589 1.79-2.962-.432-7.404-.432-7.404zm-8.946-10.119a3.523 3.523 0 01.802-1.295.215.215 0 00.123.061l6.17.556a48.485 48.485 0 00-4.812-1.728 17.681 17.681 0 012.468-1.172s5.676 2.344 6.972 4.134l-1.11 2.714-8.392 1.543a9.605 9.605 0 01-1.851-2.53l7.96-.185c-.062.062-3.58-1.11-8.33-2.098zm25.358 2.345a9.456 9.456 0 01-1.85 2.468l-8.392-1.543-1.11-2.653c1.295-1.85 6.972-4.134 6.972-4.134a17.021 17.021 0 012.468 1.111 36.726 36.726 0 00-4.998 1.79l6.108-.618a.471.471 0 00.309-.123 3.772 3.772 0 01.802 1.357 84.327 84.327 0 00-8.391 2.16zm9.564-3.702a66.667 66.667 0 00-7.157.925 4.899 4.899 0 00-.802-1.604 65.464 65.464 0 016.54-1.357c.432.678.925 1.357 1.419 2.036zm-40.29-8.33l.308 1.728a23.546 23.546 0 015.862-4.319c4.566-1.42 11.97 1.666 11.97 1.666s7.404-3.085 11.908-1.666a17.828 17.828 0 015.12 3.517s5.43-2.962 8.577-3.209c0 0 .679 5.06-2.283 8.083a24.776 24.776 0 00.062-4.566s-1.172-.123-4.566 2.468c0 0 .679.926 1.543 2.098a32.01 32.01 0 00-7.096.802 9.662 9.662 0 00-1.296-1.049 15.291 15.291 0 00-1.912-1.11c-.802-.309-.988-1.296-.124-1.296a1.065 1.065 0 011.05.926l1.788-.864 2.654.123 1.604.062-4.998-3.208-6.293 2.714-4.32-.863 2.407 1.727h-7.713l2.407-1.727-4.32.863-6.293-2.714-4.997 3.208 1.604-.062 2.653-.123 1.851.864a.955.955 0 01.987-.988c.987 0 .617 1.234-.185 1.358-.555.308-1.234.679-1.974 1.049-.494.308-1.05.617-1.543.987a33.281 33.281 0 00-6.787-.679c.864-1.172 1.543-2.098 1.543-2.098a18.246 18.246 0 00-5.43-5.553 20.161 20.161 0 016.232 1.851zm19.25-7.712a11.534 11.534 0 014.196 2.653c-1.358.308-2.592.617-3.579.864-2.653-1.851-7.527-1.79-7.527-1.79a4.766 4.766 0 011.172 1.05c-5.923-1.605-8.885-.926-13.697 1.418 0 0-1.543-.493-3.394-.925 5.985-2.9 15.795-5.306 23.2-1.913zM86.133 74.842c-.308-1.11.864-4.196.864-4.196a13.204 13.204 0 00-5.121 2.16c.617-11.723 6.417-16.598 6.417-16.598a10.69 10.69 0 00-4.134-.308 14.397 14.397 0 011.049-1.728 51.22 51.22 0 015.614.802 5.557 5.557 0 00-.617 4.751 21.94 21.94 0 00-5.368 9.379s1.358-1.234 5.183-2.221c0 0-.37 1.419-1.172 4.627 0 0 2.098-.555 5.306-1.234a38.764 38.764 0 00-.987 6.108s4.257-1.172 5.923-.308c-.247 1.234-1.85 9.625 3.702 11.106a3.118 3.118 0 001.79-.309 13.986 13.986 0 013.455-.617 13.986 13.986 0 013.455.617 2.687 2.687 0 001.79.309c5.614-1.48 4.01-8.947 3.763-10.18a37.104 37.104 0 01-.185-4.813c.678 0 3.085.432 3.085.432-2.777-6.294 3.393-9.625 3.393-9.625a5.926 5.926 0 00-1.357-2.715 8.339 8.339 0 001.357-4.936 42.855 42.855 0 017.528-1.173q.647.926 1.11 1.666a19.3 19.3 0 00-3.393.37s6.478 9.81 6.17 16.721a13.7 13.7 0 00-5.985-1.419 14.531 14.531 0 01.74 2.406 34.123 34.123 0 00-4.75-.863s1.357 3.763.555 5.923a12.591 12.591 0 00-6.417-.802s1.666 8.267-2.283 10.057a20.423 20.423 0 01-8.515 1.79 20.69 20.69 0 01-8.514-1.79c-3.764-1.358-2.345-10.057-2.345-10.057a15.322 15.322 0 00-5.676.802c-.802-2.16.555-5.923.555-5.923a45.983 45.983 0 00-5.985 1.789zm18.572 66.019a67.2 67.2 0 01-34.49-9.44c.863.061 1.912.061 3.146.061a40.916 40.916 0 0010.366-11.106c3.702 3.456 11.785 1.234 11.785 1.234l3.393 1.358a17.276 17.276 0 003.27-.74 4.09 4.09 0 011.172 2.652 3.962 3.962 0 00.864-3.763 3.296 3.296 0 001.234-1.543c.247-.123.494-.308.74-.432a5.363 5.363 0 011.79 2.53 4.746 4.746 0 000-4.257 5.627 5.627 0 00.74-1.42v-.246c.185-.123.309-.309.556-.494a5.306 5.306 0 011.542 2.653 4.683 4.683 0 00.062-4.812 6.771 6.771 0 00.432-1.05 3.794 3.794 0 00-.062-.863c.185-.185.37-.432.555-.617a3.583 3.583 0 011.296 2.653 6.358 6.358 0 00.247-5.368 6.245 6.245 0 00.493-2.098c-1.48-6.725-10.92-6.293-10.92-6.293a18.815 18.815 0 01-9.194 2.715l-1.357-2.406c6.478-.617 7.774-3.085 13.574-3.085a13.044 13.044 0 019.255 3.393 41.43 41.43 0 0011.723-8.391c4.936 3.393 15.61 2.962 15.61 2.962 5.368 6.046 15.178 9.07 15.178 9.07-.555 2.53.37 3.825 1.48 4.565a5.68 5.68 0 00.68 4.072 67.66 67.66 0 01-55.16 28.506zm-44.856-20.485a6.953 6.953 0 01-2.098 1.42 60.784 60.784 0 01-5.676-6.294 70.945 70.945 0 019.378-6.293 22.825 22.825 0 00-1.604 11.167zM8.638 142.218l.802 1.11-.555.556a6.723 6.723 0 001.049 2.221 7.584 7.584 0 01-1.543 2.345 6.181 6.181 0 003.455-.679 7.613 7.613 0 002.53.617l.309-.432 1.11.617a5.518 5.518 0 01-1.172 2.16 4.69 4.69 0 003.332-1.481 4.692 4.692 0 002.53-.432 3.865 3.865 0 01-.556 1.728 6.09 6.09 0 003.208-2.715 8.791 8.791 0 004.505-2.036 94.538 94.538 0 012.406-16.536 10.417 10.417 0 008.33-.432 87.148 87.148 0 0111.167-11.29 78.45 78.45 0 005.615 6.293 28.244 28.244 0 00-1.666 10.118 11.952 11.952 0 01-4.072 9.07 2.66 2.66 0 00.802 1.728 4.539 4.539 0 01-1.11 2.53 5.018 5.018 0 002.96-1.173l.124.124.062 1.789a3.707 3.707 0 001.419.987 5.127 5.127 0 01-.555 2.098 4.12 4.12 0 002.838-1.604s.74.061 1.419.061l1.419-1.048a5.906 5.906 0 01-.37 2.282 6.695 6.695 0 002.9-2.468l1.049-.308.925-1.48a7.99 7.99 0 01.062 1.603 7.412 7.412 0 001.913-3.085s.802-.493.987-.617a61.062 61.062 0 00.925-11.167 70.54 70.54 0 0096.129-20.3 7.309 7.309 0 002.838 1.605 5.044 5.044 0 01-1.42 2.406 6 6 0 004.999-1.913 10.089 10.089 0 002.59-.308 5.924 5.924 0 00.926.864 4.825 4.825 0 01-1.172 2.468 4.08 4.08 0 004.566-1.481 3.764 3.764 0 001.48-.556 5 5 0 001.111.617 3.58 3.58 0 01-1.172 1.543 4.061 4.061 0 004.072-1.234 3.464 3.464 0 001.604-.679.762.762 0 00.494-.247c-.247.617-.432 1.05-.432 1.05 1.42.184 2.653-1.543 3.27-2.715a6.445 6.445 0 002.838-5.615c0-6.54-7.404-8.268-7.404-8.268a39.06 39.06 0 01-9.995-7.219 69.856 69.856 0 002.838-19.806 70.607 70.607 0 00-141.17-2.468c-5.429.74-25.666 4.381-25.666 19.806 0 6.972 4.812 11.97 12.154 11.97a19.292 19.292 0 003.888-.494s-2.098 3.332-1.42 5.985c0 0-.863.926-4.195 1.42-5.121 6.786-.926 17.892-11.168 26.654a8.972 8.972 0 000 3.64 4.874 4.874 0 01-2.715 1.913 4.452 4.452 0 003.579.308z"/><path d="M121.117 29.369c4.196 1.48 6.725-.802 6.725-.802l-2.22-3.27a3.972 3.972 0 01-3.518.679 4.421 4.421 0 01-2.468-5.8c.926-2.53 3.085-4.072 5.553-3.209a3.301 3.301 0 012.345 2.222l3.517-1.358a6.743 6.743 0 00-4.32-4.134c-5.059-1.79-9.254.556-10.859 5.183a8.116 8.116 0 005.245 10.489zM98.473 13.882c.926-.123 2.406-.185 2.53 1.296.185 1.234-.864 1.604-2.468 1.79l-1.728.184-.37-3.085zm-.679 12.649l-.678-6.108 1.357-.186 3.826 5.8 4.565-.493-4.689-6.17a4.29 4.29 0 002.777-4.69c-.37-3.208-2.592-4.627-6.54-4.195l-6.17.617L93.906 26.9zm56.95 16.227c-2.777 1.357-2.407 4.01-2.098 6.108.308 1.728.431 2.777-.494 3.27-.925.432-1.851-.555-2.221-1.357a3.556 3.556 0 01.123-3.332l-3.887-1.11a7.492 7.492 0 00.494 5.861c1.666 3.332 4.566 4.628 7.465 3.208 2.962-1.48 2.53-4.072 2.16-6.17-.247-1.604-.432-2.591.493-3.023.926-.493 1.728.494 2.16 1.234a3.21 3.21 0 010 2.715l3.764 1.049a7.037 7.037 0 00-.556-5.306c-1.295-2.654-4.195-4.751-7.404-3.147zm-14.623-.926l2.406 2.962 9.625-7.898 2.777 3.394 2.653-2.16-8.021-9.748-2.653 2.16 2.776 3.393zm-1.111-15.116l-1.049 4.195-2.591-1.85zm-9.563 6.108l2.961-1.913 4.628 3.394-.864 3.455 3.455 2.53 3.887-16.844-2.53-1.851-14.931 8.7zM113.28 17.77l-5.8-.617-.308 3.024 5.8.617zm-21.286 9.687l-1.358-3.332-6.91 2.9-1.05-2.53 6.233-2.59-1.42-3.27-6.17 2.529-.925-2.221 6.54-2.715-1.357-3.27-10.119 4.134 6.108 14.684zM67.19 44.362L54.296 35.17l-2.221 3.085L64.97 47.51zm-17.708 5.985l11.291 5.183 1.605-3.517-11.353-5.183 1.85-3.949-3.146-1.48-5.244 11.537 3.146 1.42zM74.78 37.205a14.173 14.173 0 003.95-5.43L73.3 25.36l-4.936 4.257 2.344 2.715 2.098-1.79 1.357 1.605a6.26 6.26 0 01-1.789 2.468 4.505 4.505 0 01-6.54-.617c-1.296-1.543-2.221-4.381.308-6.602a4.858 4.858 0 013.95-1.296l.123-4.01s-2.9-.37-6.17 2.406c-4.134 3.578-4.505 8.206-1.05 12.216 2.777 3.455 7.713 3.95 11.785.494zm76.817 76.446l-6.54-5.553-1.173 1.296 7.713 6.54 2.9-3.393-1.173-.988zm-6.047 6.108l-5.738-6.355-1.234 1.11 6.664 7.528 3.27-2.9-.987-1.172zm-11.29.309l2.899 3.27-1.172.74zm-1.975-1.11l3.825 9.501 1.42-.864-.926-2.036 1.604-1.049 1.48 1.728 1.42-.864-6.972-7.527zm-3.95 11.66l-.678.247-1.172-2.838.494-.247c.987-.37 1.48-.061 1.912.926.432.925.309 1.542-.555 1.913zm-3.454-6.416l.617-.247c.678-.309 1.234 0 1.542.864a1.167 1.167 0 01-.555 1.666l-.555.185zm3.393 2.221a2.144 2.144 0 00.309-2.406c-.617-1.543-1.728-2.16-3.517-1.42l-2.345.988 3.887 9.316 2.53-1.048c1.79-.74 2.036-2.222 1.42-3.764a2.426 2.426 0 00-2.284-1.666zm-8.514-.308l-.37-1.481-4.937 1.234.37 1.419 1.605-.37 1.974 8.33 1.666-.371-1.974-8.391zm-10.798 9.131c-.679.062-.925-.308-.987-1.049l-.37-5.06c0-.74.185-1.11.864-1.233.678 0 .925.308.987 1.049l.37 5.12c.062.741-.185 1.111-.864 1.173zm-.617-8.823a2.467 2.467 0 00-2.468 2.777l.37 5.182a2.632 2.632 0 005.245-.432l-.309-5.12a2.407 2.407 0 00-2.838-2.407zm-9.193 2.468l-.617 5.06c-.062.74-.37 1.11-1.05 1.048-.678-.123-.863-.493-.801-1.234l.617-5.06c.123-.74.37-1.11 1.049-.986.678 0 .863.432.802 1.172zm-.617-2.715a2.422 2.422 0 00-2.962 2.221l-.617 5.183a2.418 2.418 0 002.345 2.838 2.337 2.337 0 002.9-2.22l.617-5.184a2.342 2.342 0 00-2.283-2.838zm-13.883 7.342l1.666.432 1.234-4.257 2.221.679.432-1.42-2.22-.678.74-2.53 2.961.926.432-1.42-4.627-1.418zM117.353 44.3l-5.614 1.42 2.16 1.172zm-13.018 1.42l-5.677-1.42 3.517 2.592zm18.88 24.741a24.052 24.052 0 014.134.432 18.196 18.196 0 00-.556-2.962 24.831 24.831 0 014.381.309s-2.16-7.404-6.232-10.674a19.958 19.958 0 011.666 7.404 13.383 13.383 0 00-2.961.123 13.549 13.549 0 01.74 3.394 10.122 10.122 0 00-3.332.062 21.564 21.564 0 012.283 7.65 31.22 31.22 0 00-.123-5.738z"/></svg>